<svg width="55" height="55" viewBox="0 0 55 55" fill="none" xmlns="http://www.w3.org/2000/svg">
<g clip-path="url(#clip0_11_30)">
<path fill-rule="evenodd" clip-rule="evenodd" d="M24.0625 4.58334C20.9563 4.58361 17.8953 5.32668 15.1347 6.75056C12.3742 8.17444 9.99414 10.2378 8.19322 12.7686C6.3923 15.2994 5.2227 18.2241 4.78201 21.2989C4.34132 24.3736 4.64231 27.5091 5.65988 30.4438C6.67745 33.3786 8.38208 36.0274 10.6316 38.1694C12.881 40.3113 15.6101 41.8843 18.5911 42.757C21.5722 43.6297 24.7187 43.7769 27.7681 43.1863C30.8176 42.5956 33.6816 41.2843 36.1212 39.3617L44.4904 47.7308C44.9226 48.1483 45.5015 48.3793 46.1023 48.3741C46.7032 48.3688 47.278 48.1278 47.7029 47.7029C48.1278 47.278 48.3688 46.7033 48.374 46.1024C48.3792 45.5015 48.1482 44.9226 47.7308 44.4904L39.3616 36.1213C41.6258 33.2489 43.0355 29.7972 43.4296 26.161C43.8236 22.5249 43.186 18.8513 41.5896 15.5606C39.9933 12.27 37.5028 9.4952 34.4032 7.55387C31.3035 5.61255 27.7199 4.5831 24.0625 4.58334ZM9.16664 24.0625C9.16664 20.1119 10.736 16.3231 13.5295 13.5296C16.323 10.7361 20.1118 9.16668 24.0625 9.16668C28.0131 9.16668 31.8019 10.7361 34.5954 13.5296C37.3889 16.3231 38.9583 20.1119 38.9583 24.0625C38.9583 28.0131 37.3889 31.8019 34.5954 34.5955C31.8019 37.389 28.0131 38.9583 24.0625 38.9583C20.1118 38.9583 16.323 37.389 13.5295 34.5955C10.736 31.8019 9.16664 28.0131 9.16664 24.0625Z" fill="black"/>
</g>
<defs>
<clipPath id="clip0_11_30">
<rect width="55" height="55" fill="white"/>
</clipPath>
</defs>
</svg>
