<svg width="54" height="55" viewBox="0 0 54 55" fill="none" xmlns="http://www.w3.org/2000/svg">
<path d="M45.1125 0.0105469C39.0938 0.0105469 34.0781 4.91484 33.1594 11.359C36.4781 13.2152 38.8031 16.9805 38.9812 21.3891C41.1562 22.5492 42.9187 24.5215 43.9594 26.9473C44.3344 26.9895 44.7188 27.0105 45.1125 27.0105C48.3844 27.0105 51.3656 25.5551 53.5406 23.2031C54.0187 22.6863 54.1406 21.8848 53.8406 21.2309C53.5406 20.577 52.8937 20.2078 52.2469 20.3238C51.7875 20.4082 51.3094 20.4609 50.8219 20.4609C46.2281 20.4609 42.5344 16.316 42.5344 11.243C42.5344 7.80469 44.2219 4.79883 46.7438 3.2168C47.3156 2.8582 47.6156 2.10938 47.475 1.38164C47.3344 0.653906 46.7906 0.116016 46.1344 0.0527344C45.7969 0.0210937 45.45 0 45.1125 0V0.0105469ZM34.4906 40.5C38.6344 40.5 41.9906 36.7242 41.9906 32.0625C41.9906 27.9176 39.3281 24.4582 35.8219 23.7621C35.9344 23.1715 36 22.5703 36 21.948C36 17.2863 32.6438 13.5105 28.5 13.5105C26.9062 13.5105 25.425 14.0695 24.2063 15.0293C22.6219 12.0973 19.7625 10.1355 16.5 10.1355C11.5312 10.1355 7.5 14.6707 7.5 20.2605V20.3977C3.24375 21.1992 0 25.3652 0 30.375C0 35.9648 4.03125 40.5 9 40.5H34.4906ZM8.00625 44.318C6.975 43.5375 5.57812 43.8539 4.88437 45.0246L1.88438 50.0871C1.19063 51.2473 1.47187 52.8188 2.5125 53.5992C3.55312 54.3797 4.94062 54.0633 5.63437 52.8926L8.63437 47.8301C9.32812 46.6699 9.04688 45.0984 8.00625 44.318ZM17.0062 44.318C15.975 43.5375 14.5781 43.8539 13.8844 45.0246L10.8844 50.0871C10.1906 51.2473 10.4719 52.8188 11.5125 53.5992C12.5531 54.3797 13.9406 54.0633 14.6344 52.8926L17.6344 47.8301C18.3281 46.6699 18.0469 45.0984 17.0062 44.318ZM26.0062 44.318C24.975 43.5375 23.5781 43.8539 22.8844 45.0246L19.8844 50.0871C19.1906 51.2473 19.4719 52.8188 20.5125 53.5992C21.5531 54.3797 22.9406 54.0633 23.6344 52.8926L26.6344 47.8301C27.3281 46.6699 27.0469 45.0984 26.0062 44.318ZM35.0062 44.318C33.975 43.5375 32.5781 43.8539 31.8844 45.0246L28.8844 50.0871C28.1906 51.2473 28.4719 52.8188 29.5125 53.5992C30.5531 54.3797 31.9406 54.0633 32.6344 52.8926L35.6344 47.8301C36.3281 46.6699 36.0469 45.0984 35.0062 44.318Z" fill="#111111"/>
</svg>
